<svg width="158" height="83" viewBox="0 0 158 83" fill="none" xmlns="http://www.w3.org/2000/svg">
<path d="M37.9645 4.94975C39.9171 2.99713 43.0829 2.99713 45.0355 4.94975L78.0502 37.9645C80.0029 39.9171 80.0029 43.0829 78.0503 45.0355L45.0355 78.0502C43.0829 80.0029 39.9171 80.0029 37.9645 78.0503L4.94975 45.0355C2.99713 43.0829 2.99713 39.9171 4.94975 37.9645L37.9645 4.94975Z" stroke="#00FFF0" stroke-width="2"/>
<path d="M38.032 52H24.88V29.152H38.032V33.12H29.712V38.144H37.456V42.112H29.712V48H38.032V52ZM51.1703 29.152C53.1969 29.152 54.8929 29.344 56.2583 29.728C57.6449 30.0907 58.6796 30.6987 59.3623 31.552C60.0663 32.384 60.4183 33.5147 60.4183 34.944C60.4183 35.7973 60.2796 36.576 60.0023 37.28C59.7249 37.984 59.3196 38.56 58.7863 39.008C58.2743 39.456 57.6449 39.744 56.8983 39.872V40.032C57.6663 40.1813 58.3596 40.448 58.9783 40.832C59.5969 41.216 60.0876 41.7707 60.4503 42.496C60.8129 43.2213 60.9943 44.1813 60.9943 45.376C60.9943 46.7627 60.6529 47.9573 59.9703 48.96C59.3089 49.9413 58.3489 50.6987 57.0903 51.232C55.8316 51.744 54.3383 52 52.6103 52H44.0663V29.152H51.1703ZM51.7143 38.208C53.1223 38.208 54.0929 37.984 54.6263 37.536C55.1809 37.088 55.4583 36.4373 55.4583 35.584C55.4583 34.7093 55.1383 34.08 54.4983 33.696C53.8583 33.312 52.8449 33.12 51.4583 33.12H48.8983V38.208H51.7143ZM48.8983 42.048V48H52.0663C53.5169 48 54.5303 47.7227 55.1063 47.168C55.6823 46.592 55.9703 45.8347 55.9703 44.896C55.9703 44.32 55.8423 43.8187 55.5863 43.392C55.3516 42.9653 54.9356 42.6347 54.3383 42.4C53.7409 42.1653 52.9303 42.048 51.9063 42.048H48.8983ZM74.1423 29.152C77.0863 29.152 79.2303 29.792 80.5743 31.072C81.9396 32.3307 82.6223 34.0693 82.6223 36.288C82.6223 37.2907 82.4729 38.2507 82.1743 39.168C81.8756 40.064 81.3743 40.8747 80.6703 41.6C79.9876 42.304 79.0809 42.8587 77.9503 43.264C76.8196 43.6693 75.4223 43.872 73.7583 43.872H71.6783V52H66.8463V29.152H74.1423ZM73.8863 33.12H71.6783V39.904H73.2783C74.1956 39.904 74.9849 39.7867 75.6463 39.552C76.3076 39.3173 76.8196 38.944 77.1823 38.432C77.5449 37.92 77.7263 37.2587 77.7263 36.448C77.7263 35.3173 77.4169 34.4853 76.7983 33.952C76.1796 33.3973 75.2089 33.12 73.8863 33.12ZM88.22 29.152H92.572V40.192C92.572 40.7253 92.5613 41.3227 92.54 41.984C92.5187 42.6453 92.4973 43.296 92.476 43.936C92.4547 44.5547 92.4333 45.0987 92.412 45.568C92.3907 46.016 92.3693 46.3253 92.348 46.496H92.444L103.004 29.152H108.796V52H104.476V41.024C104.476 40.448 104.487 39.8187 104.508 39.136C104.529 38.432 104.551 37.76 104.572 37.12C104.615 36.48 104.647 35.9253 104.668 35.456C104.711 34.9653 104.743 34.6453 104.764 34.496H104.636L94.044 52H88.22V29.152ZM134.468 52H128.964L120.676 40.416V52H115.844V29.152H120.676V40.224L128.868 29.152H134.02L125.7 40.128L134.468 52ZM152.608 52L150.944 46.56H142.624L140.96 52H135.744L143.808 29.056H149.728L157.824 52H152.608ZM148.128 37.184C148.021 36.8213 147.882 36.3627 147.712 35.808C147.541 35.2533 147.37 34.688 147.2 34.112C147.029 33.536 146.89 33.0347 146.784 32.608C146.677 33.0347 146.528 33.568 146.336 34.208C146.165 34.8267 145.994 35.424 145.824 36C145.674 36.5547 145.557 36.9493 145.472 37.184L143.84 42.496H149.792L148.128 37.184Z" fill="white"/>
</svg>
